<svg width="82" height="82" viewBox="0 0 82 82" fill="none" xmlns="http://www.w3.org/2000/svg">
<path d="M1.94678 18.1975C2.12919 18.1985 2.31001 18.1636 2.47888 18.0946C2.64775 18.0256 2.80134 17.924 2.93085 17.7955L17.4978 3.22858C17.627 3.09934 17.7295 2.94593 17.7995 2.77708C17.8694 2.60824 17.9054 2.42727 17.9054 2.24451C17.9054 2.06175 17.8694 1.88078 17.7995 1.71194C17.7295 1.54309 17.627 1.38967 17.4978 1.26045C17.3686 1.13121 17.2151 1.0287 17.0463 0.958765C16.8774 0.888826 16.6965 0.852829 16.5138 0.852829C16.1447 0.852829 15.7906 0.999452 15.5297 1.26045L0.962714 15.8274C0.832805 15.9563 0.729694 16.1095 0.659328 16.2784C0.588962 16.4473 0.552734 16.6285 0.552734 16.8115C0.552734 16.9945 0.588962 17.1756 0.659328 17.3445C0.729694 17.5134 0.832805 17.6667 0.962714 17.7955C1.09222 17.924 1.24581 18.0256 1.41468 18.0946C1.58355 18.1636 1.76437 18.1985 1.94678 18.1975ZM1.94678 33.9702C2.12919 33.9713 2.31001 33.9364 2.47888 33.8673C2.64775 33.7984 2.80134 33.6968 2.93085 33.5683L33.2706 3.22858C33.3998 3.09934 33.5023 2.94593 33.5723 2.77708C33.6422 2.60824 33.6782 2.42727 33.6782 2.24451C33.6782 2.06175 33.6422 1.88078 33.5723 1.71194C33.5023 1.54309 33.3998 1.38967 33.2706 1.26045C33.1413 1.13121 32.9879 1.0287 32.8191 0.958765C32.6502 0.888826 32.4693 0.852829 32.2865 0.852829C32.1038 0.852829 31.9228 0.888826 31.754 0.958765C31.5851 1.0287 31.4317 1.13121 31.3024 1.26045L0.962714 31.6002C0.832805 31.729 0.729694 31.8823 0.659328 32.0512C0.588962 32.2201 0.552734 32.4013 0.552734 32.5842C0.552734 32.7672 0.588962 32.9484 0.659328 33.1173C0.729694 33.2862 0.832805 33.4395 0.962714 33.5683C1.09222 33.6968 1.24581 33.7984 1.41468 33.8673C1.58355 33.9364 1.76437 33.9713 1.94678 33.9702ZM1.94678 49.7154C2.30741 49.7322 2.66047 49.6081 2.93085 49.369L49.0711 3.22858C49.3319 2.96759 49.4787 2.61361 49.4787 2.24451C49.4787 1.87541 49.3319 1.52143 49.0711 1.26045C48.8103 0.999452 48.4559 0.852829 48.0869 0.852829C47.7179 0.852829 47.364 0.999452 47.1032 1.26045L0.962714 47.3452C0.832805 47.4743 0.729694 47.6273 0.659328 47.7963C0.588962 47.9653 0.552734 48.1462 0.552734 48.3294C0.552734 48.5121 0.588962 48.6935 0.659328 48.8625C0.729694 49.031 0.832805 49.1845 0.962714 49.3136C1.09222 49.4417 1.24581 49.5433 1.41468 49.6125C1.58355 49.6812 1.76437 49.7163 1.94678 49.7154ZM1.94678 65.488C2.12919 65.4893 2.31001 65.4542 2.47888 65.385C2.64775 65.3163 2.80134 65.2147 2.93085 65.0861L64.7886 3.22858C64.9177 3.09934 65.0202 2.94593 65.0902 2.77708C65.1599 2.60824 65.1962 2.42727 65.1962 2.24451C65.1962 2.06175 65.1599 1.88078 65.0902 1.71194C65.0202 1.54309 64.9177 1.38967 64.7886 1.26045C64.6591 1.13121 64.5057 1.0287 64.3371 0.958765C64.1682 0.888826 63.9872 0.852829 63.8045 0.852829C63.6217 0.852829 63.4408 0.888826 63.2718 0.958765C63.1028 1.0287 62.9494 1.13121 62.8203 1.26045L0.962714 63.1182C0.832805 63.2468 0.729694 63.4003 0.659328 63.5693C0.588962 63.7378 0.552734 63.9192 0.552734 64.1019C0.552734 64.2851 0.588962 64.4661 0.659328 64.6351C0.729694 64.804 0.832805 64.9575 0.962714 65.0861C1.09222 65.2147 1.24581 65.3163 1.41468 65.385C1.58355 65.4542 1.76437 65.4893 1.94678 65.488ZM80.5474 1.26045C80.4184 1.13053 80.2654 1.02742 80.0964 0.957057C79.9274 0.886692 79.7465 0.850464 79.5633 0.850464C79.3801 0.850464 79.1991 0.886692 79.0302 0.957057C78.8612 1.02742 78.7082 1.13053 78.5791 1.26045L0.962714 78.877C0.832805 79.0056 0.729694 79.1591 0.659328 79.3281C0.588962 79.4971 0.552734 79.678 0.552734 79.8612C0.552734 80.0439 0.588962 80.2253 0.659328 80.3939C0.729694 80.5629 0.832805 80.7163 0.962714 80.8449C1.09156 80.9749 1.24486 81.0782 1.41375 81.1483C1.58265 81.2188 1.76381 81.2552 1.94678 81.2552C2.12975 81.2552 2.31091 81.2188 2.47981 81.1483C2.6487 81.0782 2.802 80.9749 2.93085 80.8449L80.5474 3.22858C80.6774 3.09973 80.7803 2.94644 80.8508 2.77754C80.9209 2.60864 80.9573 2.42748 80.9573 2.24451C80.9573 2.06154 80.9209 1.88038 80.8508 1.71148C80.7803 1.54258 80.6774 1.38929 80.5474 1.26045ZM78.5791 17.0194L16.7216 78.877C16.5917 79.0056 16.4886 79.1591 16.4183 79.3281C16.3479 79.4971 16.3116 79.678 16.3116 79.8612C16.3116 80.0439 16.3479 80.2253 16.4183 80.3939C16.4886 80.5629 16.5917 80.7163 16.7216 80.8449C16.8505 80.9749 17.0038 81.0782 17.1727 81.1483C17.3416 81.2188 17.5227 81.2552 17.7057 81.2552C17.8887 81.2552 18.0698 81.2188 18.2387 81.1483C18.4076 81.0782 18.5609 80.9749 18.6898 80.8449L80.5474 18.9875C80.8082 18.7265 80.955 18.3725 80.955 18.0034C80.955 17.6343 80.8082 17.2803 80.5474 17.0194C80.2862 16.7584 79.9323 16.6117 79.5633 16.6117C79.1943 16.6117 78.8403 16.7584 78.5791 17.0194ZM78.5791 32.7367L32.439 78.877C32.3091 79.0056 32.2059 79.1591 32.1356 79.3281C32.0652 79.4971 32.029 79.678 32.029 79.8612C32.029 80.0439 32.0652 80.2253 32.1356 80.3939C32.2059 80.5629 32.3091 80.7163 32.439 80.8449C32.5678 80.9749 32.7211 81.0782 32.89 81.1483C33.0589 81.2188 33.2401 81.2552 33.423 81.2552C33.606 81.2552 33.7872 81.2188 33.956 81.1483C34.125 81.0782 34.2783 80.9749 34.4071 80.8449L80.5474 34.7603C80.8158 34.4993 80.9692 34.1424 80.9746 33.7681C80.9799 33.3938 80.8362 33.0328 80.575 32.7644C80.3142 32.4961 79.9571 32.3424 79.5828 32.3372C79.2085 32.332 78.8474 32.4757 78.5791 32.7367ZM78.5791 48.5374L48.2395 78.877C48.1095 79.0056 48.0066 79.1591 47.9361 79.3281C47.8656 79.4971 47.8297 79.678 47.8297 79.8612C47.8297 80.0439 47.8656 80.2253 47.9361 80.3939C48.0066 80.5629 48.1095 80.7163 48.2395 80.8449C48.3685 80.9749 48.5216 81.0782 48.6905 81.1483C48.8595 81.2188 49.0405 81.2552 49.2237 81.2552C49.4064 81.2552 49.5878 81.2188 49.7568 81.1483C49.9253 81.0782 50.0788 80.9749 50.2074 80.8449L80.5474 50.5053C80.8082 50.2445 80.955 49.8906 80.955 49.5211C80.955 49.1521 80.8082 48.7982 80.5474 48.5374C80.2862 48.2762 79.9323 48.1298 79.5633 48.1298C79.1943 48.1298 78.8403 48.2762 78.5791 48.5374ZM78.5791 64.31L64.012 78.877C63.8825 79.0056 63.7792 79.1591 63.7087 79.3281C63.6386 79.4971 63.6022 79.678 63.6022 79.8612C63.6022 80.0439 63.6386 80.2253 63.7087 80.3939C63.7792 80.5629 63.8825 80.7163 64.012 80.8449C64.1411 80.9749 64.2946 81.0782 64.4631 81.1483C64.6321 81.2188 64.8135 81.2552 64.9962 81.2552C65.1794 81.2552 65.3603 81.2188 65.5293 81.1483C65.6983 81.0782 65.8513 80.9749 65.9804 80.8449L80.5474 66.2783C80.8082 66.0171 80.955 65.6631 80.955 65.2941C80.955 64.9251 80.8082 64.5712 80.5474 64.31C80.2862 64.0492 79.9323 63.9024 79.5633 63.9024C79.1943 63.9024 78.8403 64.0492 78.5791 64.31Z" fill="url(#paint0_linear_2029_432)"/>
<defs>
<linearGradient id="paint0_linear_2029_432" x1="0.552734" y1="0.850464" x2="80.9746" y2="0.850464" gradientUnits="userSpaceOnUse">
<stop stop-color="#DF0A0A"/>
<stop offset="1" stop-color="#CDA85C"/>
</linearGradient>
</defs>
</svg>
