<svg width="20" height="20" viewBox="0 0 20 20" fill="none" xmlns="http://www.w3.org/2000/svg">
<path fill-rule="evenodd" clip-rule="evenodd" d="M15.8334 9.93051V8.31051C15.4157 8.35668 14.9933 8.33302 14.5834 8.24051V9.93051C14.5834 10.7505 14.8818 11.4455 15.1804 11.9841C15.331 12.2557 15.4964 12.5121 15.6438 12.7373L15.7382 12.8809C15.8528 13.0549 15.9536 13.2081 16.0486 13.3635C16.1806 13.5796 16.2503 13.8279 16.25 14.0811C16.2499 14.2143 16.197 14.342 16.1028 14.4361C16.0087 14.5302 15.881 14.5831 15.7478 14.5831H4.252C4.11884 14.5831 3.99114 14.5302 3.89696 14.4361C3.80279 14.342 3.74985 14.2143 3.7498 14.0811C3.7498 13.8203 3.8224 13.5745 3.9512 13.3635C4.0519 13.2009 4.15538 13.04 4.2616 12.8809L4.356 12.7373C4.5036 12.5123 4.6688 12.2557 4.8194 11.9841C5.118 11.4455 5.4164 10.7503 5.4164 9.93051V7.49991C5.4164 4.96871 7.4684 2.91651 9.9998 2.91651C10.6716 2.91651 11.3094 3.06111 11.8844 3.32051C12.0262 2.92424 12.2339 2.55472 12.4986 2.22751C11.7178 1.85702 10.8642 1.66537 10 1.66651C6.7784 1.66651 4.1666 4.27831 4.1666 7.49991V9.93051C4.1666 10.7529 3.689 11.4779 3.2238 12.1843C3.1074 12.3611 2.9918 12.5365 2.8846 12.7123C2.63283 13.1245 2.49974 13.5981 2.5 14.0811C2.50005 14.5458 2.68468 14.9914 3.01328 15.32C3.34187 15.6485 3.78752 15.8331 4.2522 15.8331H6.875C6.875 17.5591 8.2742 18.9583 10 18.9583C11.726 18.9583 13.125 17.5591 13.125 15.8333H15.7478C16.2125 15.8333 16.6582 15.6487 16.9868 15.3201C17.3154 14.9915 17.5 14.5458 17.5 14.0811C17.5 13.5851 17.361 13.1145 17.1154 12.7121C17.0054 12.5343 16.8923 12.3583 16.7762 12.1843C16.311 11.4779 15.8334 10.7529 15.8334 9.93051ZM11.875 15.8333H8.125C8.125 16.3306 8.32254 16.8075 8.67417 17.1591C9.02581 17.5108 9.50272 17.7083 10 17.7083C10.4973 17.7083 10.9742 17.5108 11.3258 17.1591C11.6775 16.8075 11.875 16.3306 11.875 15.8333Z" fill="#876424"/>
</svg>
