<svg width="38" height="36" viewBox="0 0 38 36" fill="none" xmlns="http://www.w3.org/2000/svg">
<path d="M32.75 13C32.7495 13.1656 32.6835 13.3243 32.5664 13.4414C32.4493 13.5585 32.2906 13.6245 32.125 13.625H29.625C29.4592 13.625 29.3003 13.5592 29.1831 13.4419C29.0658 13.3247 29 13.1658 29 13C29 12.8342 29.0658 12.6753 29.1831 12.5581C29.3003 12.4408 29.4592 12.375 29.625 12.375H32.125C32.2906 12.3755 32.4493 12.4415 32.5664 12.5586C32.6835 12.6757 32.7495 12.8344 32.75 13ZM6.5 20.5H1.5C1.16878 20.501 0.851416 20.633 0.617209 20.8672C0.383003 21.1014 0.250989 21.4188 0.25 21.75V24.25C0.250989 24.5812 0.383003 24.8986 0.617209 25.1328C0.851416 25.367 1.16878 25.499 1.5 25.5H6.5C6.83122 25.499 7.14858 25.367 7.38279 25.1328C7.617 24.8986 7.74901 24.5812 7.75 24.25V21.75C7.74901 21.4188 7.617 21.1014 7.38279 20.8672C7.14858 20.633 6.83122 20.501 6.5 20.5ZM7.75 31.75V34.25C7.74901 34.5812 7.617 34.8986 7.38279 35.1328C7.14858 35.367 6.83122 35.499 6.5 35.5H1.5C1.16878 35.499 0.851416 35.367 0.617209 35.1328C0.383003 34.8986 0.250989 34.5812 0.25 34.25V31.75C0.250989 31.4188 0.383003 31.1014 0.617209 30.8672C0.851416 30.633 1.16878 30.501 1.5 30.5H6.5C6.83122 30.501 7.14858 30.633 7.38279 30.8672C7.617 31.1014 7.74901 31.4188 7.75 31.75ZM6.5 31.75H1.5V34.25H6.5V31.75ZM32.7812 19.75C32.9068 20.7753 33.4187 21.7141 34.2125 22.375H34.625C34.9562 22.376 35.2736 22.508 35.5078 22.7422C35.742 22.9764 35.874 23.2938 35.875 23.625V26.125H36.5C36.6658 26.125 36.8247 26.1908 36.9419 26.3081C37.0592 26.4253 37.125 26.5842 37.125 26.75C37.125 26.9158 37.0592 27.0747 36.9419 27.1919C36.8247 27.3092 36.6658 27.375 36.5 27.375H25.25C25.0842 27.375 24.9253 27.3092 24.8081 27.1919C24.6908 27.0747 24.625 26.9158 24.625 26.75C24.625 26.5842 24.6908 26.4253 24.8081 26.3081C24.9253 26.1908 25.0842 26.125 25.25 26.125H25.875V23.625C25.876 23.2938 26.008 22.9764 26.2422 22.7422C26.4764 22.508 26.7938 22.376 27.125 22.375H27.5375C28.3313 21.7141 28.8432 20.7753 28.9688 19.75C28.6117 19.6169 28.3038 19.3781 28.086 19.0654C27.8683 18.7527 27.751 18.381 27.75 18V16.8125C26.5394 16.3536 25.4599 15.6046 24.6063 14.6313C24.2151 14.1778 23.9999 13.5989 23.9999 13C23.9999 12.4011 24.2151 11.8222 24.6063 11.3687C25.3888 10.4831 26.3551 9.77885 27.4378 9.30498C28.5205 8.83111 29.6935 8.59906 30.875 8.625C32.0565 8.59906 33.2295 8.83111 34.3122 9.30498C35.3949 9.77885 36.3612 10.4831 37.1437 11.3687C37.5349 11.8222 37.7501 12.4011 37.7501 13C37.7501 13.5989 37.5349 14.1778 37.1437 14.6313C36.2901 15.6046 35.2106 16.3536 34 16.8125V18C33.999 18.381 33.8817 18.7527 33.664 19.0654C33.4462 19.3781 33.1383 19.6169 32.7812 19.75ZM27.125 23.625V26.125H34.625V23.625H27.125ZM32.5187 22.375C31.9804 21.6409 31.6422 20.7793 31.5375 19.875H30.2125C30.1078 20.7793 29.7696 21.6409 29.2312 22.375H32.5187ZM34 15.45V10.55C33.0183 10.1051 31.9528 9.875 30.875 9.875C29.7972 9.875 28.7317 10.1051 27.75 10.55V15.45C28.7317 15.8949 29.7972 16.125 30.875 16.125C31.9528 16.125 33.0183 15.8949 34 15.45ZM23.375 17.375H20.25V9.25C20.2485 8.75318 20.0505 8.27712 19.6992 7.92581C19.3479 7.5745 18.8718 7.37648 18.375 7.375H14.625V4.25C14.6235 3.75318 14.4255 3.27712 14.0742 2.92581C13.7229 2.5745 13.2468 2.37648 12.75 2.375H9.625C9.45924 2.375 9.30027 2.44085 9.18306 2.55806C9.06585 2.67527 9 2.83424 9 3C9 3.16576 9.06585 3.32473 9.18306 3.44194C9.30027 3.55915 9.45924 3.625 9.625 3.625H12.75C12.9156 3.62549 13.0743 3.6915 13.1914 3.8086C13.3085 3.92571 13.3745 4.08439 13.375 4.25V11.75C13.3745 11.9156 13.3085 12.0743 13.1914 12.1914C13.0743 12.3085 12.9156 12.3745 12.75 12.375H9.625C9.45924 12.375 9.30027 12.4408 9.18306 12.5581C9.06585 12.6753 9 12.8342 9 13C9 13.1658 9.06585 13.3247 9.18306 13.4419C9.30027 13.5592 9.45924 13.625 9.625 13.625H12.75C13.2468 13.6235 13.7229 13.4255 14.0742 13.0742C14.4255 12.7229 14.6235 12.2468 14.625 11.75V8.625H18.375C18.5406 8.62549 18.6993 8.6915 18.8164 8.80861C18.9335 8.92571 18.9995 9.08439 19 9.25V26.75C18.9995 26.9156 18.9335 27.0743 18.8164 27.1914C18.6993 27.3085 18.5406 27.3745 18.375 27.375H14.625V24.25C14.6235 23.7532 14.4255 23.2771 14.0742 22.9258C13.7229 22.5745 13.2468 22.3765 12.75 22.375H9.625C9.45924 22.375 9.30027 22.4408 9.18306 22.5581C9.06585 22.6753 9 22.8342 9 23C9 23.1658 9.06585 23.3247 9.18306 23.4419C9.30027 23.5592 9.45924 23.625 9.625 23.625H12.75C12.9156 23.6255 13.0743 23.6915 13.1914 23.8086C13.3085 23.9257 13.3745 24.0844 13.375 24.25V31.75C13.3745 31.9156 13.3085 32.0743 13.1914 32.1914C13.0743 32.3085 12.9156 32.3745 12.75 32.375H9.625C9.45924 32.375 9.30027 32.4408 9.18306 32.5581C9.06585 32.6753 9 32.8342 9 33C9 33.1658 9.06585 33.3247 9.18306 33.4419C9.30027 33.5592 9.45924 33.625 9.625 33.625H12.75C13.2468 33.6235 13.7229 33.4255 14.0742 33.0742C14.4255 32.7229 14.6235 32.2468 14.625 31.75V28.625H18.375C18.8718 28.6235 19.3479 28.4255 19.6992 28.0742C20.0505 27.7229 20.2485 27.2468 20.25 26.75V18.625H23.375C23.5408 18.625 23.6997 18.5592 23.8169 18.4419C23.9342 18.3247 24 18.1658 24 18C24 17.8342 23.9342 17.6753 23.8169 17.5581C23.6997 17.4408 23.5408 17.375 23.375 17.375ZM6.5 0.5H1.5C1.16878 0.500989 0.851416 0.633003 0.617209 0.867209C0.383003 1.10142 0.250989 1.41878 0.25 1.75V4.25C0.250989 4.58122 0.383003 4.89858 0.617209 5.13279C0.851416 5.367 1.16878 5.49901 1.5 5.5H6.5C6.83122 5.49901 7.14858 5.367 7.38279 5.13279C7.617 4.89858 7.74901 4.58122 7.75 4.25V1.75C7.74901 1.41878 7.617 1.10142 7.38279 0.867209C7.14858 0.633003 6.83122 0.500989 6.5 0.5ZM7.75 11.75V14.25C7.74901 14.5812 7.617 14.8986 7.38279 15.1328C7.14858 15.367 6.83122 15.499 6.5 15.5H1.5C1.16878 15.499 0.851416 15.367 0.617209 15.1328C0.383003 14.8986 0.250989 14.5812 0.25 14.25V11.75C0.250989 11.4188 0.383003 11.1014 0.617209 10.8672C0.851416 10.633 1.16878 10.501 1.5 10.5H6.5C6.83122 10.501 7.14858 10.633 7.38279 10.8672C7.617 11.1014 7.74901 11.4188 7.75 11.75ZM6.5 11.75H1.5V14.25H6.5V11.75Z" fill="#CDA85C"/>
</svg>
