<svg width="65" height="65" viewBox="0 0 65 65" fill="none" xmlns="http://www.w3.org/2000/svg">
<g clip-path="url(#clip0_2211_1940)">
<path d="M62.2824 18.1532C62.1782 15.9486 61.5746 13.7965 60.5173 11.8593C59.46 9.92198 57.9765 8.25012 56.1788 6.96981C55.5798 6.54146 54.7471 6.6797 54.3187 7.27854C54.2382 7.39104 54.1759 7.51541 54.1336 7.64702L48.5605 24.9527C48.4942 25.1472 48.4732 25.3543 48.4992 25.5581L53.8323 62.8895C53.8781 63.2094 54.0386 63.5017 54.2839 63.7121C54.5291 63.9225 54.8424 64.0367 55.1656 64.0334H63.1651C63.9015 64.0343 64.4992 63.4382 64.5001 62.7019C64.5001 62.6791 64.4996 62.6562 64.4985 62.6335L62.2824 18.1532ZM16.4395 24.9715L10.9998 7.55915C10.7799 6.85644 10.0321 6.46484 9.32924 6.6847C9.19949 6.72532 9.07675 6.78544 8.96513 6.86319C7.13645 8.14939 5.62386 9.83423 4.54156 11.7905C3.45926 13.7468 2.83553 15.9234 2.71746 18.156L0.501703 62.6335C0.46483 63.369 1.03118 63.9949 1.76664 64.0318C1.78939 64.0329 1.81213 64.0336 1.83501 64.0334H9.83459C10.1577 64.0367 10.471 63.9225 10.7163 63.7121C10.9615 63.5017 11.122 63.2094 11.1679 62.8895L16.501 25.5581C16.5244 25.3605 16.5035 25.16 16.4395 24.9715Z" fill="#B0BEC5"/>
<path d="M56.1892 6.98309C55.1017 6.19558 53.9076 5.56708 52.6428 5.11656L50.0455 4.15124C48.0843 3.44326 46.0416 2.98546 43.9658 2.78868C43.2328 2.71944 42.5823 3.25753 42.513 3.99062C42.4879 4.25702 42.5434 4.52482 42.6725 4.75921C43.0004 5.35437 43.1702 6.02363 43.1659 6.7031V8.30302L32.4998 10.6735L21.8336 8.30302V6.7031C21.8309 6.02317 22.0026 5.35389 22.3322 4.75921C22.6877 4.11436 22.4532 3.30341 21.8084 2.94793C21.5722 2.8177 21.302 2.76217 21.0336 2.78868C18.9517 2.98245 16.9027 3.43849 14.9352 4.14599L12.3729 5.10319C11.1559 5.53196 10.0045 6.12784 8.95169 6.87372C8.723 7.03681 8.55166 7.26796 8.46213 7.53419C8.37259 7.80042 8.36943 8.08813 8.45309 8.35627L13.8342 25.5714V60.0335C13.8342 60.5381 14.119 60.9995 14.5701 61.2255C14.7995 61.3401 20.3272 64.0333 32.4998 64.0333C44.6724 64.0333 50.2003 61.3401 50.4295 61.2255C50.6507 61.1147 50.8367 60.9445 50.9666 60.734C51.0966 60.5235 51.1655 60.2809 51.1655 60.0335V25.5794L56.6745 8.47088C56.7608 8.20339 56.7603 7.91548 56.6731 7.64829C56.5859 7.38109 56.4166 7.14828 56.1892 6.98309Z" fill="#CFD8DC"/>
<path d="M33.8093 17.1237C33.6702 16.4006 32.9713 15.9271 32.2482 16.0662C31.9865 16.1166 31.7458 16.2442 31.5573 16.4327C31.3688 16.6212 31.2411 16.8619 31.1908 17.1237L27.191 38.4559C27.1568 38.6375 27.1607 38.8241 27.2025 39.0041C27.2443 39.184 27.323 39.3533 27.4336 39.5013L31.4334 44.8344C31.8753 45.4234 32.711 45.5428 33.2999 45.101C33.401 45.0252 33.4908 44.9354 33.5665 44.8344L37.5663 39.5013C37.677 39.3533 37.7557 39.184 37.7975 39.0041C37.8392 38.8241 37.8431 38.6375 37.8089 38.4559L33.8093 17.1237Z" fill="#2196F3"/>
<path d="M44.9898 3.45244C44.4043 2.42205 43.5578 1.56393 42.5356 0.964335C41.5133 0.364736 40.3512 0.0447792 39.1661 0.0366211H25.8334C24.6483 0.0447792 23.4862 0.364736 22.464 0.964335C21.4417 1.56393 20.5953 2.42205 20.0097 3.45244C19.8885 3.66307 19.8272 3.90284 19.8323 4.14581C19.8375 4.38878 19.909 4.62572 20.0391 4.83099C20.1667 5.03819 20.3497 5.20564 20.5673 5.31447C20.785 5.4233 21.0287 5.46919 21.271 5.44696C21.7404 5.40959 22.2087 5.38646 22.6763 5.37759L31.6279 13.0492C31.8694 13.2557 32.1767 13.3692 32.4945 13.3692C32.8123 13.3692 33.1196 13.2557 33.3611 13.0492L42.3207 5.36959C42.79 5.37846 43.2584 5.40159 43.726 5.43896C44.2202 5.48371 44.6972 5.24522 44.9579 4.82299C45.0868 4.61883 45.1578 4.3835 45.1635 4.14213C45.1691 3.90075 45.109 3.66238 44.9898 3.45244Z" fill="#90A4AE"/>
<path d="M37.0083 8.13739C36.7647 8.03629 36.4966 8.00968 36.2379 8.06094C35.9792 8.1122 35.7416 8.23903 35.555 8.42537L32.4991 11.4838L29.4433 8.42537C28.9233 7.90403 28.0791 7.90303 27.5577 8.423C27.4333 8.54713 27.3346 8.69464 27.2674 8.85705C27.2002 9.01946 27.1657 9.19355 27.166 9.36933V12.0358C27.166 12.3243 27.2596 12.605 27.4326 12.8358L31.4324 18.1689C31.8743 18.758 32.71 18.8773 33.2989 18.4355C33.4 18.3597 33.4898 18.2699 33.5656 18.1689L37.5653 12.8358C37.7384 12.605 37.832 12.3243 37.832 12.0358V9.36933C37.832 9.1055 37.7538 8.84759 37.6072 8.62828C37.4605 8.40896 37.2521 8.23812 37.0083 8.13739Z" fill="#1976D2"/>
<path d="M44.9981 3.47108C44.8912 3.27729 44.7377 3.11317 44.5515 2.99352C44.3653 2.87388 44.1522 2.80247 43.9315 2.78575C43.2334 2.73059 42.5333 2.70303 41.833 2.70313C41.5149 2.70385 41.2076 2.81827 40.9664 3.02573L31.6335 11.0253C31.0754 11.5055 31.0123 12.3474 31.4926 12.9056C31.6174 13.0507 31.772 13.1672 31.9458 13.2471C32.1197 13.3271 32.3087 13.3688 32.5001 13.3692C32.597 13.3687 32.6935 13.358 32.7881 13.3372L44.7875 10.6707C45.0838 10.6052 45.3489 10.4405 45.539 10.2039C45.7291 9.96727 45.8327 9.67289 45.8328 9.3694V6.70291C45.8318 5.57245 45.5447 4.46062 44.9981 3.47108Z" fill="#B0BEC5"/>
<path d="M33.3671 11.0253L24.0342 3.02573C23.7931 2.81822 23.4857 2.70379 23.1676 2.70312C22.4654 2.70312 21.7632 2.73062 21.0611 2.78575C20.8404 2.80247 20.6274 2.87388 20.4412 2.99352C20.255 3.11317 20.1015 3.27729 19.9946 3.47108C19.4508 4.46137 19.1664 5.57315 19.168 6.70291V9.3694C19.1681 9.67289 19.2717 9.96726 19.4618 10.2039C19.6519 10.4405 19.917 10.6052 20.2133 10.6707L32.2127 13.3372C32.3073 13.358 32.4038 13.3687 32.5006 13.3692C33.237 13.3676 33.8326 12.7692 33.8309 12.0329C33.8304 11.8415 33.7887 11.6525 33.7087 11.4786C33.6286 11.3048 33.5121 11.1502 33.3671 11.0253Z" fill="#B0BEC5"/>
</g>
<defs>
<clipPath id="clip0_2211_1940">
<rect width="64" height="64" fill="white" transform="translate(0.5 0.0351562)"/>
</clipPath>
</defs>
</svg>
