<svg width="65" height="65" viewBox="0 0 65 65" fill="none" xmlns="http://www.w3.org/2000/svg">
<mask id="mask0_2194_3280" style="mask-type:luminance" maskUnits="userSpaceOnUse" x="0" y="0" width="65" height="65">
<path d="M0.5 0.920113H64.4998V64.9199H0.5V0.920113Z" fill="white"/>
</mask>
<g mask="url(#mask0_2194_3280)">
<path d="M63.192 20.9768L59.1946 14.4712C55.6593 8.71748 50.1435 4.4538 43.6847 2.48211L32.5 12.2161L21.3151 2.48211C14.8563 4.45384 9.34052 8.71751 5.80516 14.4712L1.8078 20.9768C1.0838 22.1552 1.45405 23.6974 2.63405 24.4187L12.0168 30.1535V57.7324C12.0168 61.1842 14.815 63.9824 18.2668 63.9824H46.733C50.1849 63.9824 52.983 61.1842 52.983 57.7324V30.1535L62.3657 24.4187C63.5457 23.6974 63.916 22.1552 63.192 20.9768Z" fill="#FCE3A0"/>
<path d="M52.983 44.914C41.6706 44.914 32.4998 35.7434 32.4998 24.4308V9.09108C28.7966 9.09108 25.7201 6.40697 25.1099 2.87798C24.9902 2.1856 24.3079 1.73886 23.6206 1.88548C19.9537 2.66803 16.4839 4.18705 13.4216 6.35045C10.3592 8.51386 7.76805 11.2766 5.80516 14.4712L1.8078 20.9768C1.0838 22.1552 1.45405 23.6974 2.63405 24.4187L12.0168 30.1535V57.7324C12.0168 61.1842 14.815 63.9824 18.2668 63.9824H46.733C50.1848 63.9824 52.983 61.1842 52.983 57.7324V44.914Z" fill="#FFCE71"/>
<path d="M12.0177 13.1117L7.83398 27.5962L12.0177 30.1533V13.1117Z" fill="#FFB357"/>
<path d="M52.9824 13.1117L57.1662 27.5962L52.9824 30.1533V13.1117Z" fill="#FFCE71"/>
<path d="M41.3784 1.88572C40.6911 1.73909 40.0089 2.18584 39.8891 2.87821C39.2789 6.4072 36.2025 9.09132 32.4992 9.09132C28.7958 9.09132 25.7193 6.4072 25.1092 2.87821C24.9894 2.18584 24.3071 1.73909 23.6199 1.88572C22.8432 2.05219 22.074 2.252 21.3145 2.48459C21.4005 3.68609 21.6667 4.87033 22.1381 5.98133C23.8484 10.0133 27.8436 12.8413 32.4992 12.8413C37.1548 12.8413 41.1499 10.0133 42.8603 5.98133C43.3315 4.87033 43.5978 3.68609 43.6839 2.48459C42.9243 2.25202 42.1551 2.05221 41.3784 1.88572Z" fill="#676F72"/>
<path d="M30.6242 10.9663C30.6242 9.93082 31.4637 9.09132 32.4992 9.09132C28.7958 9.09132 25.7194 6.4072 25.1092 2.87821C24.9894 2.18584 24.3072 1.73909 23.6199 1.88572C22.8432 2.05213 22.074 2.25194 21.3145 2.48459C21.4006 3.68609 21.6668 4.87033 22.1381 5.98133C23.8484 10.0132 27.8436 12.8413 32.4992 12.8413C31.4637 12.8413 30.6242 12.0018 30.6242 10.9663Z" fill="#4C5659"/>
<path d="M45.4823 14.7354H38.9883C38.2979 14.7354 37.7383 15.295 37.7383 15.9854V21.106C37.7383 21.7963 38.2979 22.356 38.9883 22.356H45.4823C46.1726 22.356 46.7323 21.7963 46.7323 21.106V15.9854C46.7323 15.295 46.1726 14.7354 45.4823 14.7354Z" fill="#FF8E9E"/>
<path d="M41.4883 21.1064V15.9858C41.4883 15.2955 42.0479 14.7358 42.7383 14.7358H38.9883C38.2979 14.7358 37.7383 15.2955 37.7383 15.9858V21.1064C37.7383 21.7968 38.2979 22.3564 38.9883 22.3564H42.7383C42.0479 22.3564 41.4883 21.7968 41.4883 21.1064Z" fill="#EA5B70"/>
<path d="M36.4883 19.7354V27.1792C36.4883 27.4321 36.565 27.679 36.7083 27.8874C36.8515 28.0958 37.0547 28.2558 37.2908 28.3463L41.7878 30.0704C42.0759 30.1809 42.3947 30.1809 42.6828 30.0704L47.1797 28.3463C47.4159 28.2558 47.619 28.0958 47.7623 27.8874C47.9055 27.679 47.9822 27.4321 47.9822 27.1792V19.7354C47.9822 19.045 47.4226 18.4854 46.7323 18.4854H37.7383C37.0479 18.4854 36.4883 19.045 36.4883 19.7354Z" fill="#676F72"/>
<path d="M41.4883 20.6852V18.4854H37.7383C37.0479 18.4854 36.4883 19.045 36.4883 19.7354V27.1792C36.4883 27.4321 36.565 27.679 36.7083 27.8874C36.8515 28.0958 37.0547 28.2558 37.2908 28.3463L41.7878 30.0704C42.0759 30.1809 42.3947 30.1809 42.6828 30.0704L47.1797 28.3463C47.4159 28.2558 47.619 28.0958 47.7623 27.8874C47.9055 27.679 47.9822 27.4321 47.9822 27.1792C44.3958 27.1792 41.4883 24.2717 41.4883 20.6852Z" fill="#4C5659"/>
</g>
</svg>
