<svg width="59" height="58" viewBox="0 0 59 58" fill="none" xmlns="http://www.w3.org/2000/svg">
<path d="M46.9941 4.498L39.5 2L37.5 0L35.7188 2.67175C35.0362 3.69554 34.1115 4.535 33.0267 5.1156C31.9418 5.6962 30.7304 5.99999 29.5 6C28.2696 5.99999 27.0582 5.6962 25.9733 5.1156C24.8885 4.535 23.9638 3.69554 23.2812 2.67175L21.5 0L19.5 2L12.0059 4.498C9.69216 5.26923 7.6014 6.59299 5.91473 8.35458C4.22807 10.1162 2.99637 12.2625 2.32638 14.6075L0.5 21V25L8.5 29L11.5 22V58H47.5V22L50.5 29L58.5 25V21L56.6736 14.6075C56.0036 12.2625 54.7719 10.1162 53.0853 8.35458C51.3986 6.59299 49.3078 5.26923 46.9941 4.498Z" fill="#2EA3F2"/>
<path d="M5.89013 19.2747L3.967 18.7253L4.36487 17.3328C5.0789 14.8311 6.39248 12.5414 8.19167 10.6623C9.99086 8.78318 12.2213 7.37139 14.6896 6.54937L17.1839 5.71813L17.8161 7.61537L15.322 8.44662C13.1623 9.16592 11.2106 10.4013 9.63634 12.0455C8.06208 13.6898 6.91273 15.6933 6.288 17.8822L5.89013 19.2747ZM53.1099 19.2747L52.712 17.8822C52.0872 15.6933 50.9379 13.6898 49.3636 12.0456C47.7893 10.4013 45.8376 9.16602 43.6779 8.44675L41.1839 7.61537L41.8161 5.718L44.3102 6.54937C46.7786 7.37135 49.0091 8.78313 50.8083 10.6622C52.6076 12.5414 53.9212 14.8311 54.6353 17.3328L55.033 18.7253L53.1099 19.2747ZM35.5 13H41.5V58H35.5V13ZM28.5 13H30.5V58H28.5V13ZM17.5 13H23.5V58H17.5V13ZM21.2075 6.23713C22.2417 7.41909 23.5166 8.36631 24.9468 9.01529C26.377 9.66426 27.9294 10 29.5 10C31.0706 10 32.623 9.66425 34.0532 9.01527C35.4833 8.3663 36.7583 7.41908 37.7925 6.23713L41.0484 2.51613L39.5 1.99988L37.5 0L35.7188 2.67175C35.0362 3.69554 34.1115 4.53499 33.0267 5.11559C31.9418 5.69619 30.7304 5.99998 29.5 6C28.2696 5.99998 27.0582 5.69619 25.9733 5.11559C24.8885 4.53499 23.9638 3.69554 23.2812 2.67175L21.5 0L19.5 2L17.9516 2.51613L21.2075 6.23713ZM8.5 29L9.91175 25.7059L0.5 21V25L8.5 29ZM50.5 29L58.5 25V21L49.0882 25.7059L50.5 29Z" fill="#51517A"/>
<path d="M19.3794 13.8871L19.1576 13L16.1576 12L13.1576 13L12.9359 13.8871C12.7151 14.77 12.8021 15.7018 13.1823 16.5287C13.5626 17.3555 14.2135 18.028 15.0275 18.435L16.1576 19L17.2876 18.435C18.1016 18.028 18.7525 17.3556 19.1328 16.5287C19.5131 15.7019 19.6001 14.7701 19.3794 13.8871Z" fill="#F4C36E"/>
</svg>
